<?xml version="1.0" encoding="UTF-8" standalone="no"?>
<!DOCTYPE svg PUBLIC "-//W3C//DTD SVG 1.1//EN" "http://www.w3.org/Graphics/SVG/1.1/DTD/svg11.dtd">
<svg width="100%" height="100%" viewBox="0 0 100 100" version="1.1" xmlns="http://www.w3.org/2000/svg" xmlns:xlink="http://www.w3.org/1999/xlink" xml:space="preserve" xmlns:serif="http://www.serif.com/" style="fill-rule:evenodd;clip-rule:evenodd;stroke-linejoin:round;stroke-miterlimit:2;">
    <g transform="matrix(0.326717,0,0,0.326717,-90.7825,-50.6325)">
        <circle cx="429.338" cy="315.439" r="129.951" style="fill:rgb(250,250,250);"/>
    </g>
    <g transform="matrix(0.419168,0,0,0.419168,-95.1924,-179.522)">
        <g transform="matrix(175,0,0,175,262.375,627.914)">
            <path d="M0.757,-0.768C0.748,-0.75 0.716,-0.71 0.687,-0.68L0.451,-0.434L0.455,-0.469C0.468,-0.56 0.471,-0.614 0.465,-0.632C0.455,-0.663 0.429,-0.683 0.391,-0.688C0.36,-0.692 0.353,-0.69 0.341,-0.676C0.317,-0.649 0.339,-0.625 0.305,-0.58C0.268,-0.533 0.174,-0.385 0.064,-0.29C-0.001,-0.234 -0.006,-0.217 0.035,-0.18C0.085,-0.135 0.117,-0.14 0.162,-0.2C0.242,-0.309 0.256,-0.327 0.282,-0.353C0.307,-0.379 0.309,-0.38 0.309,-0.365C0.309,-0.356 0.3,-0.331 0.289,-0.31C0.266,-0.265 0.268,-0.255 0.31,-0.217C0.356,-0.175 0.377,-0.177 0.417,-0.225C0.465,-0.285 0.537,-0.345 0.592,-0.415C0.636,-0.471 0.697,-0.532 0.704,-0.526C0.708,-0.522 0.692,-0.437 0.675,-0.379C0.669,-0.357 0.654,-0.281 0.636,-0.177C0.623,-0.104 0.61,-0.112 0.652,-0.075C0.713,-0.022 0.749,-0.043 0.758,-0.135C0.772,-0.287 0.8,-0.373 0.817,-0.462C0.851,-0.633 0.912,-0.709 0.88,-0.77C0.868,-0.794 0.866,-0.795 0.818,-0.797L0.77,-0.799L0.757,-0.768Z" style="fill:rgb(16,0,121);fill-rule:nonzero;"/>
        </g>
    </g>
</svg>
